<svg viewBox="0 0 1200 630" xmlns="http://www.w3.org/2000/svg">
  <defs>
    <linearGradient id="G4" x1="0" y1="0" x2="1" y2="1">
      <stop offset="0%" stop-color="#102a4f"/>
      <stop offset="100%" stop-color="#1b4b84"/>
    </linearGradient>
  </defs>
  <rect width="1200" height="630" fill="#102a4f"/>
  <path d="M300 520 L900 520 C940 520, 980 480, 980 440 L980 260 C980 220, 940 180, 900 180 L300 180 C260 180, 220 220, 220 260 L220 440 C220 480, 260 520, 300 520 Z" fill="#1b4b84"/>
  <path d="M600 170 L740 310 L650 400 L600 360 L550 400 L460 310 Z" fill="#ff8b1c" opacity="0.92"/>
  <circle cx="335" cy="255" r="70" fill="#ff8b1c" opacity="0.16"/>
  <path d="M620 280 L620 410" stroke="#ffe4c2" stroke-width="32" stroke-linecap="round"/>
  <path d="M620 460 L620 480" stroke="#ffe4c2" stroke-width="22" stroke-linecap="round"/>
</svg>