<svg viewBox="0 0 1200 630" xmlns="http://www.w3.org/2000/svg">
  <defs>
    <linearGradient id="gradA" x1="0" y1="0" x2="1" y2="1">
      <stop offset="0%" stop-color="#102a4f"/>
      <stop offset="100%" stop-color="#ff8b1c"/>
    </linearGradient>
  </defs>
  <rect width="1200" height="630" fill="#0f2b50"/>
  <path d="M200 520 C440 440, 760 440, 1000 520 L1000 560 L200 560 Z" fill="#1b4b84"/>
  <path d="M500 130 C450 210, 350 250, 320 340 C300 400, 340 480, 420 500 L460 460 C430 420, 420 360, 450 320 C500 260, 560 230, 620 250 C680 270, 700 330, 680 390 L720 430 C760 340, 720 220, 620 180 C580 170, 540 160, 500 130 Z" fill="#ff8b1c" opacity="0.9"/>
  <path d="M240 500 L320 340 L400 500 Z" fill="#ffe4c2" opacity="0.7"/>
  <circle cx="280" cy="380" r="32" fill="#ff8b1c"/>
  <circle cx="910" cy="495" r="88" fill="url(#gradA)" opacity="0.15"/>
</svg>